<svg xmlns="http://www.w3.org/2000/svg" width="203" height="56" viewBox="0 0 203 56">
  <metadata><?xpacket begin="﻿" id="W5M0MpCehiHzreSzNTczkc9d"?>
<x:xmpmeta xmlns:x="adobe:ns:meta/" x:xmptk="Adobe XMP Core 5.6-c138 79.159824, 2016/09/14-01:09:01        ">
   <rdf:RDF xmlns:rdf="http://www.w3.org/1999/02/22-rdf-syntax-ns#">
      <rdf:Description rdf:about=""/>
   </rdf:RDF>
</x:xmpmeta>
                                                                                                    
                                                                                                    
                                                                                                    
                                                                                                    
                                                                                                    
                                                                                                    
                                                                                                    
                                                                                                    
                                                                                                    
                                                                                                    
                                                                                                    
                                                                                                    
                                                                                                    
                                                                                                    
                                                                                                    
                                                                                                    
                                                                                                    
                                                                                                    
                                                                                                    
                                                                                                    
                           
<?xpacket end="w"?></metadata>
<defs>
    <style>
      .cls-1 {
        fill: #ffbe00;
        stroke: #fff;
        stroke-linejoin: round;
        stroke-opacity: 0.38;
        stroke-width: 1px;
        fill-rule: evenodd;
      }
    </style>
  </defs>
  <path id="Menu_item_shape" data-name="Menu item shape" class="cls-1" d="M499.331,229.469c0-4.806,0-16.612,0-21.418a0.851,0.851,0,0,0-1.023-1.037c-2.239.043-178.5,0.162-183.212,0.035a1.306,1.306,0,0,0-.75.138,0.389,0.389,0,0,0-.267.5,2.9,2.9,0,0,0-.025.46c-0.008-.92-0.018,33.658-0.048,48.594a1.778,1.778,0,0,0,.135.8,0.339,0.339,0,0,0,.336.321,1.788,1.788,0,0,0,.788.134c11.081-.053,171.956-0.05,183.038-0.039a0.808,0.808,0,0,0,.987-0.634,2.187,2.187,0,0,0,.08-0.664c-0.022-4.668-.03-15.331-0.036-20l0.248-.01c3.611,3.8,7.621,4.358,10.407,1.753,2.436-2.278,2.684-7.714.645-10.114C507.923,225.092,502.562,225.248,499.331,229.469Z" transform="translate(-311.5 -204.5)"/>
</svg>
