<svg xmlns="http://www.w3.org/2000/svg" width="219" height="56" viewBox="0 0 219 56">
  <metadata><?xpacket begin="﻿" id="W5M0MpCehiHzreSzNTczkc9d"?>
<x:xmpmeta xmlns:x="adobe:ns:meta/" x:xmptk="Adobe XMP Core 5.6-c138 79.159824, 2016/09/14-01:09:01        ">
   <rdf:RDF xmlns:rdf="http://www.w3.org/1999/02/22-rdf-syntax-ns#">
      <rdf:Description rdf:about=""/>
   </rdf:RDF>
</x:xmpmeta>
                                                                                                    
                                                                                                    
                                                                                                    
                                                                                                    
                                                                                                    
                                                                                                    
                                                                                                    
                                                                                                    
                                                                                                    
                                                                                                    
                                                                                                    
                                                                                                    
                                                                                                    
                                                                                                    
                                                                                                    
                                                                                                    
                                                                                                    
                                                                                                    
                                                                                                    
                                                                                                    
                           
<?xpacket end="w"?></metadata>
<defs>
    <style>
      .cls-1 {
        fill: #e63600;
        stroke: #fff;
        stroke-linejoin: round;
        stroke-opacity: 0.38;
        stroke-width: 1px;
        fill-rule: evenodd;
      }
    </style>
  </defs>
  <path id="Menu_item_shape_copy_3" data-name="Menu item shape copy 3" class="cls-1" d="M743.576,229.469c0-4.806,0-16.612,0-21.418a0.852,0.852,0,0,0-1.026-1.037c-2.246.043-192.787,0.162-197.513,0.035a1.311,1.311,0,0,0-.752.138,0.389,0.389,0,0,0-.269.5,3.153,3.153,0,0,0-.025.46c-0.007-.92-0.018,33.659-0.048,48.594a1.778,1.778,0,0,0,.135.8,0.342,0.342,0,0,0,.338.321,1.808,1.808,0,0,0,.79.135c11.112-.054,186.226-0.051,197.339-0.04a0.81,0.81,0,0,0,.99-0.633,2.194,2.194,0,0,0,.08-0.665c-0.022-4.668-.03-15.331-0.036-20l0.248-.01c3.622,3.8,7.644,4.358,10.438,1.753,2.442-2.278,2.691-7.714.646-10.114C752.192,225.092,746.816,225.248,743.576,229.469Z" transform="translate(-540.5 -204.5)"/>
</svg>
