<svg xmlns="http://www.w3.org/2000/svg" xmlns:xlink="http://www.w3.org/1999/xlink" width="189" height="47.5" viewBox="0 0 189 47.5">
  <metadata><?xpacket begin="﻿" id="W5M0MpCehiHzreSzNTczkc9d"?>
<x:xmpmeta xmlns:x="adobe:ns:meta/" x:xmptk="Adobe XMP Core 5.6-c138 79.159824, 2016/09/14-01:09:01        ">
   <rdf:RDF xmlns:rdf="http://www.w3.org/1999/02/22-rdf-syntax-ns#">
      <rdf:Description rdf:about=""/>
   </rdf:RDF>
</x:xmpmeta>
                                                                                                    
                                                                                                    
                                                                                                    
                                                                                                    
                                                                                                    
                                                                                                    
                                                                                                    
                                                                                                    
                                                                                                    
                                                                                                    
                                                                                                    
                                                                                                    
                                                                                                    
                                                                                                    
                                                                                                    
                                                                                                    
                                                                                                    
                                                                                                    
                                                                                                    
                                                                                                    
                           
<?xpacket end="w"?></metadata>
<defs>
    <style>
      .cls-1 {
        fill: #2ecc71;
        stroke: #717171;
        stroke-linejoin: round;
        stroke-opacity: 0.38;
        stroke-width: 1px;
        fill-rule: evenodd;
        filter: url(#filter);
      }
    </style>
    <filter id="filter" x="1160" y="-18" width="190" height="66" filterUnits="userSpaceOnUse">
      <feOffset result="offset" in="SourceAlpha"/>
      <feGaussianBlur result="blur" stdDeviation="2.236"/>
      <feFlood result="flood" flood-color="#fff" flood-opacity="0.4"/>
      <feComposite result="composite" operator="in" in2="blur"/>
      <feBlend result="blend" in="SourceGraphic"/>
    </filter>
  </defs>
  <g transform="translate(-1160.5)" style="fill: #2ecc71; filter: url(#filter)">
    <path id="Menu_item_shape_copy_9" data-name="Menu item shape copy 9" class="cls-1" d="M1261.53,30.315c4.81,0,77.61,0,82.42,0a0.855,0.855,0,0,0,1.04-1.025c-0.05-2.242-.17-37.474-0.04-42.192a1.251,1.251,0,0,0-.14-0.751,0.386,0.386,0,0,0-.5-0.268,2.987,2.987,0,0,0-.46-0.025c0.92-.008-163.65-0.018-178.59-0.048a1.79,1.79,0,0,0-.8.136,0.337,0.337,0,0,0-.32.337,1.824,1.824,0,0,0-.14.789c0.06,11.094.05,30.923,0.04,42.018a0.814,0.814,0,0,0,.64.989,2.187,2.187,0,0,0,.66.08c4.67-.022,84.33-0.03,89-0.036,0,0.083.01,0.166,0.01,0.248-3.8,3.615-4.36,7.631-1.75,10.42,2.27,2.439,7.71,2.687,10.11.646C1265.91,38.917,1265.75,33.549,1261.53,30.315Z" style="stroke: inherit; filter: none; fill: inherit"/>
  </g>
  <use transform="translate(-1160.5)" xlink:href="#Menu_item_shape_copy_9" style="stroke: #717171; filter: none; fill: none"/>
</svg>
